<?xml version="1.0"?>
<svg xmlns="http://www.w3.org/2000/svg" viewBox="0 0 512 512" width="512" height="512"><g id="Beauty_Eyelashes" data-name="Beauty Eyelashes"><g id="Glyph"><path d="M420.405,365.114c-5.176,19.021-15.211,31.026-25.2,38.563a110.163,110.163,0,0,0,9.79-28.629,7.909,7.909,0,0,0-9.5-9.243l-.209.047a7.9,7.9,0,0,0-6.023,6.14c-3.6,17.776-11.779,37.812-30.094,46.962,7.04-10.729,11.61-23.605,14.147-37.17a7.915,7.915,0,0,0-9.368-9.161l-.168.033a7.962,7.962,0,0,0-6.253,6.353c-3.227,17.21-10.84,37.223-28.489,47a60.979,60.979,0,0,0,7.345-12.971,97,97,0,0,0,6.458-26.235,7.988,7.988,0,0,0-9.141-8.8l-.164.025a7.92,7.92,0,0,0-6.686,6.907c-2.541,21.936-10.4,40.842-33.785,45.8a58.343,58.343,0,0,0,11.318-17.7,92.346,92.346,0,0,0,5.9-22.037,7.957,7.957,0,0,0-8.58-9.108l-.164.015a8.019,8.019,0,0,0-7.2,6.837c-3.209,21.6-12.366,39.508-37.744,42.735,10.209-9.185,17.229-22.042,20.7-38.172a7.9,7.9,0,0,0-7.978-9.508l-.163,0a7.988,7.988,0,0,0-7.572,6.335,63.657,63.657,0,0,1-7.511,19.64c-6.9,11.321-17.223,18.23-31.324,20.922,10.032-10.167,16.264-24.185,20-37.428a7.944,7.944,0,0,0-7.033-10.041l-.16-.013a7.864,7.864,0,0,0-8.2,5.71c-3.929,13.857-10.774,28.078-21.727,35.3-8.838,5.828-19.343,6.292-32.042,1.409a50.468,50.468,0,0,0,17.951-8.624c9.6-7.238,15.876-17.432,19.638-28.067a7.807,7.807,0,0,0-5.65-10.25l-.446-.1a7.816,7.816,0,0,0-9.05,5.1c-2.8,7.9-7.332,15.416-14.127,20.541-8.119,6.125-18.694,8.336-31.519,6.647a50.746,50.746,0,0,0,30.308-31.2,7.857,7.857,0,0,0-4.619-9.9l-.153-.059a7.943,7.943,0,0,0-10.388,4.807,35.95,35.95,0,0,1-6.723,11.671C150.817,395.36,137.757,400,120,400a8,8,0,0,0-8,8c0,4.418,57.864,36.838,80,40,56,8,112,0,112,0,12.991,0,83.422-18.566,100.8-31.6,11.488-8.616,24.547-23.218,31.052-47.17A7.912,7.912,0,0,0,427,359.347l-.175.028A7.932,7.932,0,0,0,420.405,365.114Z"/><path d="M254.909,368c-53.453,0-89.858-18.38-111.192-33.509C112,312,50.35,245.783,49.639,244.851a8,8,0,0,1,12.719-9.706h0c.164.214,16.7,21.673,44.161,42.784C131.48,297.122,170.916,320,217.032,320c40.905,0,86.795-12.257,127.282-23.072,55.071-14.709,98.568-26.326,119.7-6.8a7.989,7.989,0,0,1,2.274,3.721l13.419,48a8,8,0,0,1-13.134,8.029c-14.292-13.206-38.635-7.747-75.481.517C356.107,358.237,312.571,368,254.909,368Z"/><path d="M469.722,177.952a40.551,40.551,0,0,1-7.13-.624l-.241-.047L190.572,120H44.783c-35.32,0-41.978-19.713-42.8-31.484a8,8,0,0,1,7.281-8.525l181.647-15.96a7.958,7.958,0,0,1,2.1.092l299.312,53.035a24,24,0,0,1,19.438,27.858c-1.855,10.372-8.487,19.836-18.194,25.963A45.038,45.038,0,0,1,469.722,177.952Z"/><path d="M135.236,365.682c-9.008,9.3-24.6,12.785-46.352,10.367a8,8,0,0,0-8.875,7.565,8.181,8.181,0,0,0,7.385,8.368,128.932,128.932,0,0,0,13.98.8c19.842,0,35.061-5.347,45.352-15.965a44.671,44.671,0,0,0,6.41-8.42,7.881,7.881,0,0,0-2.92-10.854l-.143-.081a8,8,0,0,0-10.821,2.963A28.561,28.561,0,0,1,135.236,365.682Z"/><path d="M50.187,309.43a8,8,0,0,0-10,6A8.186,8.186,0,0,0,46.09,324.9q16.722,4.719,30.218,4.718c4.835,0,11.021-1.447,16.355-3.042a7.3,7.3,0,0,0,2.95-12.3l-.433-.41a7.4,7.4,0,0,0-7.041-1.7C78.6,314.735,65.673,313.83,50.187,309.43Z"/><path d="M109.621,338.187c-9.042,6.962-24.145,8.062-43.681,3.177a8,8,0,0,0-9.807,6.306,8.19,8.19,0,0,0,6.21,9.287,106.372,106.372,0,0,0,25.406,3.437c12.915,0,23.575-3.237,31.849-9.7a39.517,39.517,0,0,0,3.216-2.8,6.44,6.44,0,0,0-.332-9.616l-.123-.1a10.107,10.107,0,0,0-12.668-.044Z"/></g></g></svg>
